<mxfile host="65bd71144e">
    <diagram id="tIxozkypbWaRvRqusSom" name="Page-1">
        <mxGraphModel dx="1975" dy="874" grid="1" gridSize="10" guides="1" tooltips="1" connect="1" arrows="1" fold="1" page="1" pageScale="1" pageWidth="850" pageHeight="1100" math="0" shadow="0">
            <root>
                <mxCell id="0"/>
                <mxCell id="1" parent="0"/>
                <mxCell id="10" value="Video" style="swimlane;fontStyle=1;align=center;verticalAlign=top;childLayout=stackLayout;horizontal=1;startSize=26;horizontalStack=0;resizeParent=1;resizeParentMax=0;resizeLast=0;collapsible=1;marginBottom=0;" vertex="1" parent="1">
                    <mxGeometry x="320" y="40" width="230" height="350" as="geometry"/>
                </mxCell>
                <mxCell id="11" value="- Id: string &#10;- nom : string &#10;- dur: float &#10;- gen: string&#10;- calif: float&#10;- fechaEs: string&#10;# Video( )   &#10;" style="text;strokeColor=none;fillColor=none;align=left;verticalAlign=top;spacingLeft=4;spacingRight=4;overflow=hidden;rotatable=0;points=[[0,0.5],[1,0.5]];portConstraint=eastwest;" vertex="1" parent="10">
                    <mxGeometry y="26" width="230" height="114" as="geometry"/>
                </mxCell>
                <mxCell id="12" value="" style="line;strokeWidth=1;fillColor=none;align=left;verticalAlign=middle;spacingTop=-1;spacingLeft=3;spacingRight=3;rotatable=0;labelPosition=right;points=[];portConstraint=eastwest;strokeColor=inherit;" vertex="1" parent="10">
                    <mxGeometry y="140" width="230" height="38" as="geometry"/>
                </mxCell>
                <mxCell id="13" value="+ Video(Id: string, nom: string, dur:float&#10;gen: string, calif: float, fechaEs: string) &#10;+ setCalif(float): void&#10;+ getId( ): string &#10;+ getNom( ): string &#10;+ getDur( ): float &#10;+ getGen( ): string &#10;+ getCalif( ): float &#10;+ getFecha( ): string&#10;+ getDatos( ): void" style="text;strokeColor=none;fillColor=none;align=left;verticalAlign=top;spacingLeft=4;spacingRight=4;overflow=hidden;rotatable=0;points=[[0,0.5],[1,0.5]];portConstraint=eastwest;" vertex="1" parent="10">
                    <mxGeometry y="178" width="230" height="172" as="geometry"/>
                </mxCell>
                <mxCell id="21" style="edgeStyle=none;html=1;exitX=0.5;exitY=0;exitDx=0;exitDy=0;entryX=0.419;entryY=1.007;entryDx=0;entryDy=0;entryPerimeter=0;" edge="1" parent="1" source="14" target="13">
                    <mxGeometry relative="1" as="geometry"/>
                </mxCell>
                <mxCell id="14" value="Peliculas" style="swimlane;fontStyle=1;align=center;verticalAlign=top;childLayout=stackLayout;horizontal=1;startSize=26;horizontalStack=0;resizeParent=1;resizeParentMax=0;resizeLast=0;collapsible=1;marginBottom=0;" vertex="1" parent="1">
                    <mxGeometry x="90" y="430" width="230" height="160" as="geometry"/>
                </mxCell>
                <mxCell id="16" value="" style="line;strokeWidth=1;fillColor=none;align=left;verticalAlign=middle;spacingTop=-1;spacingLeft=3;spacingRight=3;rotatable=0;labelPosition=right;points=[];portConstraint=eastwest;strokeColor=inherit;" vertex="1" parent="14">
                    <mxGeometry y="26" width="230" height="38" as="geometry"/>
                </mxCell>
                <mxCell id="17" value="+ Peliculas(Id: string, nom:string, dur:float,&#10;gen:string, calif:float, fechaEs:string)&#10;+ Peliculas: vector&lt;string&gt; dato &#10;+ getDatos( ): void " style="text;strokeColor=none;fillColor=none;align=left;verticalAlign=top;spacingLeft=4;spacingRight=4;overflow=hidden;rotatable=0;points=[[0,0.5],[1,0.5]];portConstraint=eastwest;" vertex="1" parent="14">
                    <mxGeometry y="64" width="230" height="96" as="geometry"/>
                </mxCell>
                <mxCell id="22" style="edgeStyle=none;html=1;exitX=0.5;exitY=0;exitDx=0;exitDy=0;" edge="1" parent="1" source="18">
                    <mxGeometry relative="1" as="geometry">
                        <mxPoint x="430" y="390" as="targetPoint"/>
                    </mxGeometry>
                </mxCell>
                <mxCell id="18" value="Episodios" style="swimlane;fontStyle=1;align=center;verticalAlign=top;childLayout=stackLayout;horizontal=1;startSize=26;horizontalStack=0;resizeParent=1;resizeParentMax=0;resizeLast=0;collapsible=1;marginBottom=0;" vertex="1" parent="1">
                    <mxGeometry x="520" y="432" width="230" height="260" as="geometry"/>
                </mxCell>
                <mxCell id="23" value="- IdE: string&#10;- nomE : string &#10;- tem: string &#10;- numE: string&#10;&#10;&#10;" style="text;strokeColor=none;fillColor=none;align=left;verticalAlign=top;spacingLeft=4;spacingRight=4;overflow=hidden;rotatable=0;points=[[0,0.5],[1,0.5]];portConstraint=eastwest;" vertex="1" parent="18">
                    <mxGeometry y="26" width="230" height="74" as="geometry"/>
                </mxCell>
                <mxCell id="19" value="" style="line;strokeWidth=1;fillColor=none;align=left;verticalAlign=middle;spacingTop=-1;spacingLeft=3;spacingRight=3;rotatable=0;labelPosition=right;points=[];portConstraint=eastwest;strokeColor=inherit;" vertex="1" parent="18">
                    <mxGeometry y="100" width="230" height="30" as="geometry"/>
                </mxCell>
                <mxCell id="20" value="+ Episodio(Id:string, nom:string, dur:float,&#10;gen:string, calif:float, fechaEs:string, &#10;IdE:string, nomE:string, tem:string, &#10;numE:string) &#10;+ getDatos( ): void" style="text;strokeColor=none;fillColor=none;align=left;verticalAlign=top;spacingLeft=4;spacingRight=4;overflow=hidden;rotatable=0;points=[[0,0.5],[1,0.5]];portConstraint=eastwest;" vertex="1" parent="18">
                    <mxGeometry y="130" width="230" height="130" as="geometry"/>
                </mxCell>
                <mxCell id="25" value="ServicioS " style="swimlane;fontStyle=1;align=center;verticalAlign=top;childLayout=stackLayout;horizontal=1;startSize=26;horizontalStack=0;resizeParent=1;resizeParentMax=0;resizeLast=0;collapsible=1;marginBottom=0;" vertex="1" parent="1">
                    <mxGeometry x="90" y="670" width="230" height="200" as="geometry"/>
                </mxCell>
                <mxCell id="28" value="- vector&lt;Pelicula&gt; peliculas" style="text;strokeColor=none;fillColor=none;align=left;verticalAlign=top;spacingLeft=4;spacingRight=4;overflow=hidden;rotatable=0;points=[[0,0.5],[1,0.5]];portConstraint=eastwest;" vertex="1" parent="25">
                    <mxGeometry y="26" width="230" height="44" as="geometry"/>
                </mxCell>
                <mxCell id="26" value="" style="line;strokeWidth=1;fillColor=none;align=left;verticalAlign=middle;spacingTop=-1;spacingLeft=3;spacingRight=3;rotatable=0;labelPosition=right;points=[];portConstraint=eastwest;strokeColor=inherit;" vertex="1" parent="25">
                    <mxGeometry y="70" width="230" height="10" as="geometry"/>
                </mxCell>
                <mxCell id="27" value="+ ServicioS( )&#10;+ abrirPeliculas( ): void &#10;+ videosCalif(float calificacion): void &#10;+ menu( ): void  " style="text;strokeColor=none;fillColor=none;align=left;verticalAlign=top;spacingLeft=4;spacingRight=4;overflow=hidden;rotatable=0;points=[[0,0.5],[1,0.5]];portConstraint=eastwest;" vertex="1" parent="25">
                    <mxGeometry y="80" width="230" height="120" as="geometry"/>
                </mxCell>
            </root>
        </mxGraphModel>
    </diagram>
</mxfile>